<svg xmlns="http://www.w3.org/2000/svg" width="256" height="256" viewBox="0 0 256 256"><rect width="256" height="256" fill="none"/><path d="M128,24A104,104,0,1,0,232,128,104.11,104.11,0,0,0,128,24Zm-8.49,27.51a40,40,0,0,1,49,49l-16.5,16.51a16,16,0,0,0-22.62,22.62L146,156.25a40,40,0,1,1-56.57-56.57L106,116.25a16,16,0,1,0-22.62-22.62Z" opacity="0.2"/><path d="M128,16A112,112,0,1,0,240,128,112.12,112.12,0,0,0,128,16Zm0,216A104,104,0,1,1,232,128,104.11,104.11,0,0,1,128,224Z" fill="#4f46e5"/><path d="M162,116.25a16,16,0,0,0-22.62-22.62l-16.51,16.5a40,40,0,0,0-49,49L90.42,175.66a40,40,0,1,1,56.57-56.57Z" fill="#4f46e5"/><path d="M119.51,51.51a40,40,0,0,1,49,49l-16.5,16.51a16,16,0,0,0-22.62,22.62L146,156.25a40,40,0,1,1-56.57-56.57L106,116.25a16,16,0,1,0-22.62-22.62Z" fill="#4f46e5" transform="rotate(-90 128 128)"/></svg>